<!DOCTYPE svg PUBLIC "-//W3C//DTD SVG 20010904//EN" "http://www.w3.org/TR/2001/REC-SVG-20010904/DTD/svg10.dtd">
<svg version="1.0" xmlns="http://www.w3.org/2000/svg" width="1146px" height="984px" viewBox="0 0 11460 9840" preserveAspectRatio="xMidYMid meet">
<g id="layer101" fill="#fb600b" stroke="none">
 <path d="M3945 9529 c-176 -41 -299 -134 -373 -284 -48 -97 -57 -147 -56 -300 1 -237 70 -451 200 -622 52 -69 182 -173 271 -218 l78 -40 187 -3 187 -4 126 65 126 64 19 -24 c11 -14 22 -33 25 -42 8 -27 47 -40 153 -52 116 -13 173 -2 199 37 15 23 15 36 5 123 -13 100 -50 285 -112 561 -11 52 -26 118 -31 145 -15 70 -22 101 -59 260 -18 77 -36 159 -41 183 -18 92 -41 102 -231 102 -137 0 -177 -9 -185 -41 -8 -28 -30 -23 -163 33 -149 63 -233 78 -325 57z m391 -385 c60 -16 127 -63 154 -107 75 -121 131 -463 87 -530 -39 -59 -178 -103 -299 -94 -116 9 -182 51 -252 160 -73 113 -111 226 -104 310 6 77 43 143 120 218 l68 67 88 -5 c48 -3 110 -11 138 -19z"/>
 <path d="M9125 9525 c-149 -32 -301 -129 -390 -248 -91 -120 -105 -167 -112 -366 -4 -107 -2 -171 7 -210 57 -245 228 -463 465 -592 l80 -43 220 -4 c253 -4 269 -1 395 83 106 71 203 193 246 312 26 71 33 403 10 422 -22 18 -180 29 -551 36 -320 7 -441 17 -463 39 -40 40 41 156 139 200 35 16 74 33 87 39 45 21 209 13 335 -17 105 -25 120 -26 140 -13 28 18 107 166 107 200 0 104 -481 213 -715 162z m450 -898 c55 -7 106 -16 113 -21 20 -12 14 -51 -17 -93 -121 -167 -311 -188 -491 -55 -43 32 -110 122 -110 148 0 12 29 16 165 27 96 8 248 5 340 -6z"/>
 <path d="M7293 9519 c-58 -11 -109 -36 -168 -82 -64 -50 -157 -163 -179 -217 -29 -72 -39 -185 -32 -363 5 -158 8 -172 39 -257 54 -142 119 -242 232 -355 99 -99 166 -143 264 -174 19 -6 111 -11 209 -11 l175 0 66 34 c36 19 86 46 111 60 25 14 53 26 62 26 21 0 23 -7 113 -385 59 -247 57 -243 109 -250 50 -8 312 -3 320 6 4 3 1 37 -5 75 -6 38 -12 80 -14 94 -8 51 -23 129 -53 265 -17 77 -47 219 -66 315 -20 96 -40 193 -45 215 -5 22 -14 60 -20 85 -22 97 -49 218 -61 275 -11 54 -35 157 -75 330 -7 33 -19 84 -26 114 -16 74 -46 152 -64 171 -13 12 -41 15 -148 13 -152 -1 -202 -15 -213 -57 -3 -14 -12 -26 -20 -26 -7 0 -53 18 -103 39 -142 63 -287 84 -408 60z m407 -372 c150 -42 199 -109 256 -346 57 -240 57 -246 8 -301 -41 -45 -103 -72 -209 -89 -112 -19 -187 4 -273 82 -103 95 -179 266 -169 382 10 108 65 205 146 257 39 24 54 28 120 28 42 -1 96 -6 121 -13z"/>
 <path d="M326 9501 c-41 -9 -66 -32 -66 -62 0 -19 14 -94 30 -164 5 -22 23 -105 40 -185 17 -80 35 -161 40 -180 5 -19 18 -78 30 -130 12 -52 25 -113 30 -135 5 -22 17 -74 26 -115 50 -231 159 -706 184 -800 5 -19 14 -58 20 -86 7 -32 21 -61 37 -75 23 -23 33 -24 177 -27 144 -3 153 -2 180 19 28 22 29 23 22 103 -4 45 -11 97 -16 116 -5 19 -16 71 -24 115 -23 122 -85 418 -91 434 -3 7 -12 48 -21 90 -8 42 -24 112 -34 156 -10 44 -25 112 -33 150 -20 92 -54 245 -72 320 -8 33 -26 112 -41 175 -42 182 -68 251 -102 269 -24 13 -267 22 -316 12z"/>
 <path d="M1130 9503 c-24 -2 -50 -9 -57 -15 -29 -24 -4 -201 77 -543 11 -44 45 -192 76 -330 77 -340 111 -474 128 -500 21 -32 135 -58 231 -53 84 4 122 24 139 75 6 18 14 34 17 38 4 3 46 -12 94 -35 182 -86 175 -84 340 -84 136 -1 154 1 196 22 65 32 155 116 189 176 28 48 30 57 30 161 0 139 -11 201 -125 720 -31 144 -65 307 -65 317 0 3 -21 17 -47 30 -42 20 -62 23 -168 23 -155 0 -175 -10 -175 -88 0 -28 18 -140 41 -247 22 -107 47 -229 56 -270 8 -41 19 -93 24 -115 29 -136 49 -232 49 -243 0 -18 -78 -101 -111 -118 -81 -41 -286 13 -377 99 -24 24 -39 52 -57 112 -36 123 -73 266 -80 310 -4 22 -14 67 -22 100 -9 33 -17 69 -19 80 -4 21 -10 45 -43 170 -35 129 -51 172 -70 189 -14 13 -43 18 -122 20 -57 2 -124 2 -149 -1z"/>
 <path d="M2808 9500 c-45 -8 -64 -23 -72 -56 -6 -23 20 -165 64 -354 36 -155 106 -460 130 -570 7 -30 16 -73 21 -95 5 -22 15 -69 23 -105 19 -92 81 -359 122 -528 44 -177 65 -229 99 -242 15 -6 86 -10 160 -10 108 0 137 3 149 16 19 18 19 19 7 81 -5 26 -14 75 -20 108 -6 33 -22 119 -37 190 -14 72 -27 139 -29 150 -6 35 -99 471 -136 640 -11 50 -31 140 -44 202 -30 139 -53 239 -65 278 -5 17 -12 48 -15 70 -4 22 -10 51 -15 65 -5 14 -14 44 -20 67 -6 23 -17 48 -25 56 -22 23 -230 48 -297 37z"/>
 <path d="M10258 9501 c-21 -4 -47 -16 -59 -27 -19 -17 -20 -26 -14 -87 3 -37 10 -80 15 -95 8 -28 24 -97 60 -267 11 -55 25 -119 30 -142 12 -51 23 -101 45 -203 52 -240 127 -544 142 -573 25 -50 73 -57 231 -33 103 16 132 32 132 78 0 35 10 35 85 0 137 -65 334 -122 371 -108 19 7 18 56 -5 169 -32 159 -45 172 -203 209 -98 22 -239 77 -273 106 -12 9 -26 31 -32 47 -31 78 -124 439 -167 650 -47 224 -63 261 -120 269 -65 10 -202 14 -238 7z"/>
 <path d="M5195 9480 c-20 -22 -22 -5 26 -255 24 -128 36 -185 94 -440 34 -151 44 -194 54 -245 6 -30 25 -116 42 -190 17 -74 34 -146 37 -160 11 -51 38 -85 87 -109 47 -24 50 -24 154 -13 118 13 150 29 166 80 5 18 15 32 22 32 8 0 49 -18 93 -40 164 -83 254 -103 386 -87 196 22 332 125 350 265 4 31 2 120 -4 197 -11 136 -17 168 -69 400 -13 61 -28 130 -33 155 -20 100 -61 269 -81 331 -18 62 -23 67 -52 73 -34 6 -237 20 -297 21 l-35 0 2 -70 c1 -38 7 -92 12 -120 6 -27 18 -84 26 -125 8 -41 26 -131 41 -200 37 -180 67 -368 66 -422 -1 -98 -44 -139 -155 -146 -137 -8 -299 64 -337 151 -10 23 -32 94 -49 157 -17 63 -35 131 -41 150 -5 19 -24 94 -40 165 -73 309 -100 397 -138 438 -26 27 -26 27 -167 27 -130 0 -143 -2 -160 -20z"/>
 <path d="M4065 7869 c-66 -61 -80 -140 -40 -219 23 -45 110 -118 155 -130 81 -22 175 13 205 77 8 17 15 57 15 90 -1 136 -93 223 -239 223 -46 0 -56 -4 -96 -41z"/>
 <path d="M4693 7884 c-56 -37 -77 -85 -71 -163 6 -82 43 -135 121 -175 75 -38 128 -39 191 -2 67 39 88 76 84 151 -4 69 -37 127 -101 179 -34 27 -48 31 -110 34 -65 3 -76 1 -114 -24z"/>
 <path d="M7595 7458 c-27 -14 -116 -81 -190 -142 -33 -27 -80 -58 -104 -69 -48 -21 -179 -39 -431 -57 -288 -21 -315 -31 -505 -180 -209 -164 -191 -150 -321 -256 -177 -145 -432 -357 -520 -434 -28 -25 -98 -85 -155 -135 -148 -128 -229 -206 -245 -237 -17 -33 -18 -97 -2 -135 43 -102 138 -160 306 -189 88 -15 116 -16 182 -6 128 18 213 61 484 244 63 43 142 92 176 109 57 29 67 31 151 27 100 -3 113 -12 103 -63 -16 -78 -171 -505 -329 -905 -19 -47 -57 -146 -85 -220 -29 -74 -88 -229 -132 -345 -44 -115 -104 -273 -133 -350 -29 -77 -67 -176 -85 -220 -17 -44 -52 -138 -76 -210 -24 -71 -50 -148 -59 -170 -24 -66 -19 -110 23 -192 45 -92 97 -147 168 -180 140 -64 291 -38 394 69 45 46 189 329 355 698 24 52 87 185 140 295 l97 200 31 -40 c18 -22 59 -67 92 -100 47 -47 74 -65 125 -83 148 -51 267 -20 393 103 l67 67 66 -61 c97 -88 158 -115 264 -114 75 0 93 4 154 32 66 32 145 99 178 151 l15 24 68 -62 c38 -34 96 -76 129 -94 55 -29 70 -33 141 -33 72 0 86 3 142 33 132 72 185 155 358 562 47 113 93 219 101 237 8 18 37 90 65 160 28 70 59 146 69 168 10 22 35 83 56 135 l39 95 3 240 c4 260 -5 359 -43 490 -13 44 -33 148 -45 230 -29 214 -38 249 -64 274 -12 12 -108 60 -212 107 -228 103 -196 89 -384 167 -85 36 -210 88 -277 116 -407 171 -650 261 -699 261 -10 0 -28 -6 -39 -12z"/>
 <path d="M4425 6088 c-250 -60 -507 -155 -760 -278 -192 -95 -281 -149 -440 -269 -145 -109 -453 -414 -562 -557 -129 -168 -221 -319 -332 -549 -92 -189 -140 -312 -186 -475 -74 -265 -88 -402 -82 -824 5 -364 14 -464 61 -656 26 -105 79 -277 96 -315 5 -11 24 -58 42 -105 75 -197 223 -460 366 -652 148 -199 415 -468 592 -597 332 -241 635 -389 1020 -494 319 -88 344 -90 785 -84 418 6 435 8 698 76 374 97 756 281 1047 504 145 112 210 170 345 309 241 247 372 432 530 753 106 214 161 357 217 564 70 261 78 341 77 756 -1 392 -3 409 -64 440 -37 19 -59 20 -315 19 -374 0 -526 -23 -574 -87 -13 -18 -56 -99 -95 -182 -216 -462 -320 -593 -567 -714 -92 -44 -146 -55 -381 -75 -94 -7 -176 -17 -182 -20 -33 -21 10 -133 98 -256 88 -122 84 -108 40 -170 -34 -48 -39 -62 -39 -110 1 -106 77 -268 147 -311 29 -18 45 -21 107 -17 65 4 85 11 172 58 55 29 137 78 184 110 182 123 339 200 409 200 23 0 41 -5 41 -10 0 -22 -79 -160 -106 -185 -5 -5 -23 -28 -39 -50 -43 -59 -217 -242 -288 -303 -236 -201 -381 -299 -509 -343 -43 -15 -68 -2 -68 35 0 38 -49 122 -103 178 -107 110 -288 222 -423 261 -83 24 -108 42 -190 132 -85 93 -104 101 -167 69 -112 -58 -128 -91 -177 -379 -18 -104 -37 -174 -57 -208 -20 -34 -55 -53 -269 -152 -151 -70 -174 -74 -265 -51 -61 16 -249 104 -249 117 0 11 46 42 117 78 77 38 132 86 150 129 12 30 12 38 -4 70 -10 19 -40 54 -66 76 l-48 40 -62 -61 c-34 -33 -78 -70 -98 -81 -101 -61 -214 7 -432 257 -51 58 -108 126 -127 150 l-34 44 30 24 c87 70 258 70 454 -1 114 -42 162 -48 320 -43 155 5 176 10 278 70 38 23 52 38 52 54 0 27 -134 179 -242 273 -137 120 -450 435 -529 532 -91 112 -134 177 -204 307 -67 125 -113 172 -197 200 -122 41 -293 162 -330 235 -14 27 -23 78 -32 170 -13 139 -29 189 -61 194 -64 9 -68 12 -62 41 18 90 220 454 333 602 50 65 319 339 388 395 127 103 130 102 121 -33 -3 -60 -11 -126 -17 -148 -6 -24 -48 -91 -107 -170 -206 -275 -285 -445 -259 -558 5 -23 24 -81 43 -129 19 -48 42 -122 50 -165 26 -127 43 -169 84 -206 54 -49 135 -72 246 -71 107 1 162 22 315 123 52 34 133 80 179 102 72 35 150 87 186 125 6 5 28 23 50 39 22 16 52 41 68 54 15 14 98 68 184 120 176 108 194 127 199 218 5 90 -18 182 -83 326 -54 121 -75 146 -223 271 -155 131 -420 395 -420 418 0 9 6 20 13 26 32 27 303 102 366 102 13 0 44 12 68 26 33 19 43 30 38 42 -4 10 -27 77 -52 150 -42 126 -45 143 -53 289 -11 188 -18 203 -88 202 -26 -1 -65 -5 -87 -11z"/>
 </g>

</svg>